<svg width="24" height="24" viewBox="0 0 24 24" fill="none" xmlns="http://www.w3.org/2000/svg">
<path d="M4.62545 20.4306L18.4021 2.83773C18.7016 2.537 18.5519 1.93554 18.2524 1.78517C15.8564 0.431876 13.3108 -0.319954 10.4656 0.131144C5.22444 0.732608 0.88179 4.94286 0.133057 10.356C-0.46593 14.2656 1.03154 18.0247 3.42748 20.5809C3.72697 20.7313 4.32596 20.7313 4.62545 20.4306ZM4.62545 7.49908L4.7752 6.59688C4.92495 5.54432 5.37419 4.64212 6.27267 3.89029C7.0214 3.13846 8.06963 2.83773 9.41735 2.68737C10.7651 2.68737 11.6635 2.9881 12.2625 3.73993C12.8615 4.49176 13.0113 5.24359 12.8615 6.44652L12.7118 7.34871C12.562 8.40127 11.963 9.30347 11.2143 10.0553C10.4656 10.8071 9.41735 11.1079 8.06963 11.2582C6.87165 11.2582 5.82343 10.9575 5.22444 10.2057C4.62545 9.45384 4.47571 8.70201 4.62545 7.49908Z" fill="#FF0000"/>
<path d="M8.36823 9.15316C8.81747 9.15316 9.26671 9.00279 9.5662 8.70206C9.86569 8.25096 10.1652 7.95023 10.1652 7.49913L10.3149 6.59693C10.3149 6.14584 10.3149 5.69474 10.1652 5.39401C9.86569 4.94291 9.5662 4.79254 8.96721 4.79254C8.51797 4.79254 8.06873 4.94291 7.76924 5.39401C7.46975 5.69474 7.32 5.99547 7.17025 6.59693L7.02051 7.49913C7.02051 7.95023 7.02051 8.40133 7.32 8.70206C7.46975 9.00279 7.91899 9.15316 8.36823 9.15316ZM16.3048 14.7177C15.8556 14.7177 15.4063 14.8681 15.1068 15.3192C14.8073 15.6199 14.6576 16.071 14.5078 16.5221L14.3581 17.4243C14.3581 17.8754 14.3581 18.3265 14.6576 18.6272C14.9571 18.928 15.2566 19.0783 15.7058 19.0783C16.3048 19.0783 16.6043 18.928 16.9038 18.6272C17.2033 18.3265 17.353 17.8754 17.5028 17.4243L17.6525 16.5221C17.6525 16.071 17.6525 15.6199 17.353 15.3192C17.2033 14.8681 16.9038 14.7177 16.3048 14.7177Z" fill="#FF0000"/>
<path d="M19.7482 4.04068L6.12126 21.4831C5.82176 21.7839 5.97151 22.3853 6.271 22.5357C8.66695 23.889 11.5121 24.3401 14.6568 23.7386C19.299 22.6861 22.8929 18.9269 23.7914 14.2656C24.5401 10.3561 23.1924 6.59691 20.9462 3.89032C20.4969 3.58958 19.8979 3.58958 19.7482 4.04068ZM20.1974 16.3707L20.0477 17.2729C19.8979 18.3255 19.4487 19.2277 18.5502 19.9795C17.8015 20.7313 16.7533 21.032 15.4055 21.1824C14.2076 21.1824 13.1593 20.8817 12.5604 20.1298C11.9614 19.5284 11.8116 18.6262 11.9614 17.5736L12.1111 16.5211C12.2609 15.4685 12.7101 14.5663 13.6086 13.8145C14.3573 13.0626 15.4055 12.7619 16.7533 12.6115C17.9512 12.6115 18.9995 12.9123 19.5985 13.6641C20.0477 14.4159 20.3472 15.3181 20.1974 16.3707Z" fill="#FF0000"/>
</svg>
