<svg width="20" height="12" viewBox="0 0 20 12" fill="none" xmlns="http://www.w3.org/2000/svg">
<path fill-rule="evenodd" clip-rule="evenodd" d="M2.94256 10.6093L9.99989 3.55197L17.0572 10.6093C17.1802 10.7367 17.3273 10.8382 17.49 10.9081C17.6527 10.978 17.8277 11.0148 18.0047 11.0163C18.1817 11.0178 18.3573 10.9841 18.5212 10.9171C18.685 10.85 18.8339 10.751 18.9591 10.6258C19.0843 10.5006 19.1833 10.3518 19.2503 10.1879C19.3174 10.024 19.3511 9.84848 19.3496 9.67144C19.348 9.4944 19.3112 9.31944 19.2414 9.15677C19.1715 8.9941 19.0699 8.84697 18.9426 8.72397L10.9426 0.723974C10.6925 0.474012 10.3534 0.333592 9.99989 0.333592C9.64634 0.333592 9.30726 0.474012 9.05723 0.723974L1.05723 8.72397C0.929882 8.84697 0.828308 8.9941 0.758428 9.15677C0.688549 9.31944 0.651768 9.4944 0.650228 9.67144C0.648689 9.84848 0.682425 10.0241 0.749466 10.1879C0.816507 10.3518 0.915514 10.5006 1.0407 10.6258C1.16589 10.751 1.31476 10.85 1.47863 10.9171C1.64249 10.9841 1.81806 11.0178 1.9951 11.0163C2.17214 11.0148 2.3471 10.978 2.50977 10.9081C2.67244 10.8382 2.81957 10.7367 2.94256 10.6093Z" fill="#333333"/>
</svg>
