<svg width="20" height="12" viewBox="0 0 20 12" fill="none" xmlns="http://www.w3.org/2000/svg">
<path fill-rule="evenodd" clip-rule="evenodd" d="M2.94256 1.39069L9.99989 8.44803L17.0572 1.39069C17.1802 1.26335 17.3273 1.16177 17.49 1.09189C17.6527 1.02201 17.8277 0.985231 18.0047 0.983693C18.1817 0.982154 18.3573 1.01589 18.5212 1.08293C18.685 1.14997 18.8339 1.24898 18.9591 1.37417C19.0843 1.49936 19.1833 1.64823 19.2503 1.81209C19.3174 1.97595 19.3511 2.15152 19.3496 2.32856C19.348 2.5056 19.3112 2.68056 19.2414 2.84323C19.1715 3.0059 19.0699 3.15303 18.9426 3.27603L10.9426 11.276C10.6925 11.526 10.3534 11.6664 9.99989 11.6664C9.64634 11.6664 9.30726 11.526 9.05723 11.276L1.05723 3.27603C0.929882 3.15303 0.828308 3.0059 0.758428 2.84323C0.688549 2.68056 0.651768 2.5056 0.650228 2.32856C0.648689 2.15152 0.682425 1.97595 0.749466 1.81209C0.816507 1.64823 0.915514 1.49936 1.0407 1.37417C1.16589 1.24898 1.31476 1.14997 1.47863 1.08293C1.64249 1.01589 1.81806 0.982154 1.9951 0.983692C2.17214 0.985231 2.3471 1.02201 2.50977 1.09189C2.67244 1.16177 2.81957 1.26335 2.94256 1.39069Z" fill="#333333"/>
</svg>
