<svg width="33" height="32" viewBox="0 0 33 32" fill="none" xmlns="http://www.w3.org/2000/svg">
<path d="M22.5 8H10.5V14H22.5V8Z" stroke="white" stroke-width="2" stroke-linecap="round" stroke-linejoin="round"/>
<path d="M26.5 27V5C26.5 4.44772 26.0523 4 25.5 4L7.5 4C6.94772 4 6.5 4.44772 6.5 5V27C6.5 27.5523 6.94772 28 7.5 28H25.5C26.0523 28 26.5 27.5523 26.5 27Z" stroke="white" stroke-width="2" stroke-linecap="round" stroke-linejoin="round"/>
<path d="M11.5 20C12.3284 20 13 19.3284 13 18.5C13 17.6716 12.3284 17 11.5 17C10.6716 17 10 17.6716 10 18.5C10 19.3284 10.6716 20 11.5 20Z" fill="white"/>
<path d="M16.5 20C17.3284 20 18 19.3284 18 18.5C18 17.6716 17.3284 17 16.5 17C15.6716 17 15 17.6716 15 18.5C15 19.3284 15.6716 20 16.5 20Z" fill="white"/>
<path d="M21.5 20C22.3284 20 23 19.3284 23 18.5C23 17.6716 22.3284 17 21.5 17C20.6716 17 20 17.6716 20 18.5C20 19.3284 20.6716 20 21.5 20Z" fill="white"/>
<path d="M11.5 25C12.3284 25 13 24.3284 13 23.5C13 22.6716 12.3284 22 11.5 22C10.6716 22 10 22.6716 10 23.5C10 24.3284 10.6716 25 11.5 25Z" fill="white"/>
<path d="M16.5 25C17.3284 25 18 24.3284 18 23.5C18 22.6716 17.3284 22 16.5 22C15.6716 22 15 22.6716 15 23.5C15 24.3284 15.6716 25 16.5 25Z" fill="white"/>
<path d="M21.5 25C22.3284 25 23 24.3284 23 23.5C23 22.6716 22.3284 22 21.5 22C20.6716 22 20 22.6716 20 23.5C20 24.3284 20.6716 25 21.5 25Z" fill="white"/>
</svg>
