<svg width="26" height="26" viewBox="0 0 26 26" fill="none" xmlns="http://www.w3.org/2000/svg">
<path fill-rule="evenodd" clip-rule="evenodd" d="M7.34993 0.249997C8.24829 0.241416 9.11904 0.560206 9.79949 1.14681C10.4799 1.7334 10.9236 2.54768 11.0474 3.4375C11.1778 4.4235 11.42 5.3925 11.7671 6.32041C12.2757 7.66908 11.9513 9.192 10.9284 10.2219L10.2725 10.8778C11.5368 12.7987 13.182 14.4395 15.1062 15.6987L15.772 15.0357C16.274 14.5403 16.9073 14.1987 17.5971 14.0513C18.2868 13.904 19.0044 13.957 19.665 14.2042C20.6 14.5527 21.5704 14.7935 22.5706 14.9252C23.4647 15.0504 24.2819 15.4988 24.8679 16.1855C25.4539 16.8723 25.768 17.7499 25.751 18.6525V22.044C25.7535 22.5607 25.6475 23.0721 25.4398 23.5452C25.232 24.0182 24.9273 24.4424 24.5452 24.7902C24.1631 25.138 23.7122 25.4016 23.2217 25.564C22.7312 25.7264 22.2121 25.784 21.6979 25.733C17.9762 25.3299 14.4006 24.0612 11.2571 22.0284C8.33214 20.1744 5.85098 17.6996 3.9896 14.7793C1.93802 11.6195 0.661897 8.01978 0.265182 4.27333C0.218682 3.76237 0.27928 3.24732 0.443104 2.7611C0.606929 2.27488 0.870377 1.82818 1.21662 1.44955C1.56286 1.07091 1.98427 0.768661 2.45394 0.562115C2.9236 0.355568 3.43119 0.249265 3.94427 0.249997H7.34993ZM7.3641 3.08333H3.94568C3.82826 3.08371 3.71215 3.10802 3.60444 3.15478C3.49672 3.20153 3.39967 3.26974 3.31919 3.35525C3.23872 3.44076 3.17652 3.54178 3.13638 3.65213C3.09625 3.76248 3.07903 3.87985 3.08577 3.99708C3.43747 7.29629 4.56308 10.4659 6.37102 13.2479C8.01273 15.8245 10.2019 18.0079 12.7828 19.6427C15.5506 21.4351 18.6992 22.5553 21.977 22.9138C22.0967 22.9243 22.2171 22.9097 22.3308 22.8709C22.4445 22.8322 22.5488 22.7702 22.6372 22.6889C22.7256 22.6076 22.796 22.5087 22.8441 22.3987C22.8921 22.2886 22.9167 22.1698 22.9163 22.0497V18.6369C22.9281 18.4229 22.8602 18.2121 22.7257 18.0452C22.5913 17.8783 22.3997 17.7671 22.1881 17.7331C20.9873 17.5745 19.8082 17.2809 18.6733 16.8576C18.5199 16.7997 18.3532 16.7867 18.1926 16.8201C18.0321 16.8535 17.8844 16.9318 17.7667 17.046L16.3203 18.491C16.101 18.7099 15.816 18.8509 15.509 18.8923C15.2019 18.9338 14.8897 18.8734 14.6203 18.7205C11.5461 16.9768 8.99951 14.4357 7.24935 11.3652C7.09558 11.0951 7.03488 10.782 7.07661 10.474C7.11833 10.166 7.26017 9.88033 7.48026 9.66091L8.92101 8.22158C9.03658 8.10477 9.11608 7.95716 9.14999 7.79638C9.1839 7.6356 9.17081 7.46845 9.11227 7.31491C8.69057 6.18705 8.39782 5.0151 8.2396 3.82141C8.20886 3.61249 8.10268 3.42205 7.94111 3.28607C7.77955 3.15008 7.57379 3.07797 7.36268 3.08333H7.3641Z" fill="#B5BBBE"/>
</svg>
