<svg width="20" height="20" viewBox="0 0 20 20" fill="none" xmlns="http://www.w3.org/2000/svg">
<path fill-rule="evenodd" clip-rule="evenodd" d="M11.8854 10L18.9428 17.0573C19.1857 17.3088 19.32 17.6456 19.317 17.9952C19.314 18.3448 19.1737 18.6792 18.9265 18.9264C18.6793 19.1736 18.3449 19.3139 17.9953 19.3169C17.6457 19.3199 17.3089 19.1855 17.0574 18.9427L10.0001 11.8853L2.94277 18.9427C2.81978 19.07 2.67265 19.1716 2.50998 19.2415C2.34731 19.3113 2.17235 19.3481 1.99531 19.3497C1.81827 19.3512 1.6427 19.3175 1.47884 19.2504C1.31497 19.1834 1.1661 19.0844 1.04091 18.9592C0.915724 18.834 0.81672 18.6851 0.749679 18.5213C0.682638 18.3574 0.648903 18.1818 0.650441 18.0048C0.651979 17.8278 0.688761 17.6528 0.75864 17.4901C0.828518 17.3275 0.930095 17.1803 1.05744 17.0573L8.11478 10L1.05744 2.94267C0.814564 2.6912 0.680171 2.3544 0.683209 2.0048C0.686247 1.6552 0.826473 1.32079 1.07368 1.07358C1.32089 0.826366 1.65531 0.68614 2.00491 0.683102C2.3545 0.680065 2.69131 0.814458 2.94277 1.05734L10.0001 8.11467L17.0574 1.05734C17.3089 0.814458 17.6457 0.680065 17.9953 0.683102C18.3449 0.68614 18.6793 0.826366 18.9265 1.07358C19.1737 1.32079 19.314 1.6552 19.317 2.0048C19.32 2.3544 19.1857 2.6912 18.9428 2.94267L11.8854 10Z" fill="#FF0000"/>
</svg>
