<svg width="26" height="26" viewBox="0 0 26 26" fill="none" xmlns="http://www.w3.org/2000/svg">
<path d="M13.0012 0.170898C5.92011 0.170898 0.179688 5.91484 0.179688 12.9999C0.179688 20.0849 5.92011 25.8295 13.0012 25.8295C20.0821 25.8295 25.823 20.0851 25.823 12.9999C25.8228 5.91484 20.0821 0.170898 13.0012 0.170898ZM17.3799 8.37736C17.3799 8.49979 17.2808 8.59918 17.1582 8.59918H14.0369V10.2777H17.158C17.2805 10.2777 17.3796 10.3771 17.3796 10.4996V13.6222C17.3796 13.7449 17.2805 13.844 17.158 13.844H14.2586V20.6966C14.2586 20.8193 14.1595 20.9184 14.0369 20.9184H11.0872C10.9646 20.9184 10.8655 20.8193 10.8655 20.6966V13.8442H8.84427C8.7217 13.8442 8.62261 13.7451 8.62261 13.6224V10.4998C8.62261 10.3773 8.7217 10.278 8.84427 10.278H10.8655V9.01176C10.8655 8.99356 10.8677 8.97603 10.8718 8.95917C10.8735 7.15552 11.259 5.09209 14.2122 5.08278C14.2187 5.08234 14.2255 5.08189 14.2322 5.08189H17.158C17.2805 5.08189 17.3796 5.18127 17.3796 5.30372V8.37736H17.3799Z" fill="#007AD2"/>
</svg>
