<svg width="26" height="26" viewBox="0 0 26 26" fill="none" xmlns="http://www.w3.org/2000/svg">
<g opacity="0.25">
<path d="M13.0002 0.170898C5.91913 0.170898 0.178711 5.91484 0.178711 12.9999C0.178711 20.0849 5.91913 25.8295 13.0002 25.8295C20.0812 25.8295 25.822 20.0851 25.822 12.9999C25.8218 5.91484 20.0812 0.170898 13.0002 0.170898ZM17.3789 8.37736C17.3789 8.49979 17.2798 8.59918 17.1572 8.59918H14.0359V10.2777H17.157C17.2796 10.2777 17.3787 10.3771 17.3787 10.4996V13.6222C17.3787 13.7449 17.2796 13.844 17.157 13.844H14.2576V20.6966C14.2576 20.8193 14.1585 20.9184 14.0359 20.9184H11.0862C10.9636 20.9184 10.8645 20.8193 10.8645 20.6966V13.8442H8.8433C8.72073 13.8442 8.62163 13.7451 8.62163 13.6224V10.4998C8.62163 10.3773 8.72073 10.278 8.8433 10.278H10.8645V9.01176C10.8645 8.99356 10.8668 8.97603 10.8708 8.95917C10.8725 7.15552 11.258 5.09209 14.2113 5.08278C14.2177 5.08234 14.2246 5.08189 14.2312 5.08189H17.157C17.2796 5.08189 17.3787 5.18127 17.3787 5.30372V8.37736H17.3789Z" fill="#E5E5E5"/>
</g>
</svg>
