<svg width="83" height="80" viewBox="0 0 83 80" fill="none" xmlns="http://www.w3.org/2000/svg">
<path d="M82.5297 40.0828V40.3828H0.176758V40.0828H82.5297Z" stroke="#DFDFDF"/>
<path d="M82.5294 74.8254V75.1254H0V74.8254H82.5294Z" stroke="#DFDFDF"/>
<path d="M6.1599 -2.22421e-05L6.14961 79.6078L5.84961 79.6078L5.8599 -6.10352e-05L6.1599 -2.22421e-05Z" stroke="#DFDFDF"/>
<path d="M41.8459 0V79.6078H41.5459V0H41.8459Z" stroke="#DFDFDF"/>
<path d="M76.1496 -0.000854492L76.5883 79L76.2883 79.0017L75.8496 0.00081151L76.1496 -0.000854492Z" stroke="#DFDFDF"/>
<path d="M82.5294 5.34015V5.64015H0V5.34015H82.5294Z" stroke="#DFDFDF"/>
<path d="M30.1058 4.54706C30.4372 4.54706 30.7058 4.81569 30.7058 5.14706C30.7058 5.44529 30.4883 5.69271 30.2032 5.73921L30.1058 5.74706L6.60039 5.747V57.649L23.4951 57.6497C23.7934 57.6497 24.0408 57.8673 24.0873 58.1524L24.0951 58.2497L24.0944 74.718L30.1058 74.7186C30.4041 74.7186 30.6515 74.9362 30.698 75.2213L30.7058 75.3186C30.7058 75.6169 30.4883 75.8643 30.2032 75.9108L30.1058 75.9186H23.4951C23.1969 75.9186 22.9495 75.701 22.903 75.4159L22.8951 75.3186L22.8944 58.849L6.00039 58.8497C5.70216 58.8497 5.45474 58.6321 5.40824 58.347L5.40039 58.2497V5.14706C5.40039 4.84882 5.61798 4.60141 5.90307 4.55491L6.00039 4.54706H30.1058Z" fill="#007AD2"/>
<path d="M29.5002 57.7C39.6287 57.7 48.0953 65.3425 49.1829 75.333C49.2009 75.4977 49.0819 75.6458 48.9172 75.6637C48.7525 75.6816 48.6044 75.5626 48.5865 75.3979C47.5319 65.711 39.3217 58.2999 29.5002 58.2999C29.3345 58.2999 29.2002 58.1656 29.2002 58C29.2002 57.8343 29.3345 57.7 29.5002 57.7Z" fill="#007AD2"/>
<path d="M45.85 39.8486L59.0465 39.976C59.3427 39.9789 59.5871 40.196 59.633 40.4793L59.6407 40.576L59.6398 74.718H76.1808L76.1817 57.1592C76.1817 56.861 76.3993 56.6136 76.6843 56.5671L76.7817 56.5592C77.0799 56.5592 77.3273 56.7768 77.3738 57.0619L77.3817 57.1592V75.3186C77.3817 75.6169 77.1641 75.8643 76.879 75.9108L76.7817 75.9186H59.0407C58.7425 75.9186 58.4951 75.701 58.4486 75.4159L58.4407 75.3186L58.4398 41.169L45.8385 41.0486C45.5402 41.0457 45.2949 40.8257 45.2512 40.5402L45.2443 40.4428C45.2475 40.1114 45.5187 39.8454 45.85 39.8486ZM23.5003 39.6328L36.0825 39.7543C36.4138 39.7575 36.6799 40.0287 36.6767 40.3601C36.6738 40.6583 36.4538 40.9036 36.1683 40.9474L36.0709 40.9543L24.0938 40.838L24.0945 58.2497C24.0945 58.5479 23.8769 58.7953 23.5919 58.8418L23.4945 58.8497C23.1963 58.8497 22.9489 58.6321 22.9024 58.347L22.8945 58.2497V40.2328C22.8945 39.8992 23.1667 39.6296 23.5003 39.6328Z" fill="#007AD2"/>
<path d="M59.041 74.7186C59.3724 74.7186 59.641 74.9873 59.641 75.3186C59.641 75.6169 59.4234 75.8643 59.1383 75.9108L59.041 75.9186H48.6498C48.3184 75.9186 48.0498 75.65 48.0498 75.3186C48.0498 75.0204 48.2674 74.773 48.5525 74.7265L48.6498 74.7186H59.041Z" fill="#007AD2"/>
<path d="M59.0405 4.54706C59.3387 4.54706 59.5861 4.76465 59.6326 5.04974L59.6405 5.14706V40.2328C59.6405 40.5642 59.3718 40.8328 59.0405 40.8328C58.7422 40.8328 58.4948 40.6153 58.4483 40.3302L58.4405 40.2328L58.4396 5.747L47.4535 5.74706C47.1553 5.74706 46.9079 5.52947 46.8614 5.24438L46.8535 5.14706C46.8535 4.84882 47.0711 4.60141 47.3562 4.55491L47.4535 4.54706H59.0405Z" fill="#007AD2"/>
<path d="M76.4383 22.0899C76.7365 22.0899 76.9839 22.3075 77.0304 22.5926L77.0382 22.6899V41.4993C77.0382 41.8306 76.7696 42.0993 76.4383 42.0993C76.14 42.0993 75.8926 41.8817 75.8461 41.5966L75.8382 41.4993L75.8375 23.289L59.0404 23.2899C58.7422 23.2899 58.4948 23.0723 58.4483 22.7872L58.4404 22.6899C58.4404 22.3917 58.658 22.1443 58.9431 22.0978L59.0404 22.0899H76.4383Z" fill="#007AD2"/>
<path d="M29 12.4C29.8346 12.4 30.5199 13.0389 30.5935 13.8543L30.6 14V28C30.6 28.8345 29.961 29.5199 29.1456 29.5934L29 29.6H6V28.4H29C29.1933 28.4 29.3546 28.2629 29.3919 28.0806L29.4 28V14C29.4 13.8067 29.2629 13.6454 29.0806 13.6081L29 13.6H6V12.4H29Z" fill="#007AD2"/>
<path d="M12 12.4C12.8346 12.4 13.5199 13.0389 13.5935 13.8543L13.6 14V28C13.6 28.8345 12.961 29.5199 12.1456 29.5934L12 29.6H6V28.4H12C12.1933 28.4 12.3546 28.2629 12.3919 28.0806L12.4 28V14C12.4 13.8067 12.2629 13.6454 12.0806 13.6081L12 13.6H6V12.4H12Z" fill="#007AD2"/>
<path d="M13 20.4V21.6H6V20.4H13Z" fill="#007AD2"/>
<path d="M53.5996 12.4C52.765 12.4 52.0797 13.0389 52.0061 13.8543L51.9996 14V28C51.9996 28.8345 52.6386 29.5199 53.454 29.5934L53.5996 29.6H59.5996V28.4H53.5996C53.4063 28.4 53.245 28.2629 53.2077 28.0806L53.1996 28V14C53.1996 13.8067 53.3367 13.6454 53.519 13.6081L53.5996 13.6H59.5996V12.4H53.5996Z" fill="#007AD2"/>
<path d="M53.5996 9.39996C52.765 9.39996 52.0797 10.0389 52.0061 10.8543L51.9996 11V25C51.9996 25.8345 52.6386 26.5199 53.454 26.5934L53.5996 26.6H59.5996V25.4H53.5996C53.4063 25.4 53.245 25.2629 53.2077 25.0806L53.1996 25V11C53.1996 10.8067 53.3367 10.6454 53.519 10.6081L53.5996 10.6H59.5996V9.39996H53.5996Z" fill="#007AD2"/>
<path d="M53.5996 45.4C52.765 45.4 52.0797 46.0389 52.0061 46.8543L51.9996 47V54C51.9996 54.8345 52.6386 55.5199 53.454 55.5934L53.5996 55.6H59.5996V54.4H53.5996C53.4063 54.4 53.245 54.2628 53.2077 54.0806L53.1996 54V47C53.1996 46.8067 53.3367 46.6454 53.519 46.6081L53.5996 46.6H59.5996V45.4H53.5996Z" fill="#007AD2"/>
<path d="M56.5996 54.4C55.765 54.4 55.0797 55.0389 55.0061 55.8543L54.9996 56V63C54.9996 63.8345 55.6386 64.5199 56.454 64.5934L56.5996 64.6H59.5996V63.4H56.5996C56.4063 63.4 56.245 63.2628 56.2077 63.0806L56.1996 63V56C56.1996 55.8067 56.3367 55.6454 56.519 55.6081L56.5996 55.6H59.5996V54.4H56.5996Z" fill="#007AD2"/>
<path d="M68 54C70.2091 54 72 55.7909 72 58C72 60.2091 70.2091 62 68 62C65.7909 62 64 60.2091 64 58C64 55.7909 65.7909 54 68 54ZM68 55.2C66.4536 55.2 65.2 56.4536 65.2 58C65.2 59.5464 66.4536 60.8 68 60.8C69.5464 60.8 70.8 59.5464 70.8 58C70.8 56.4536 69.5464 55.2 68 55.2Z" fill="#007AD2"/>
<path d="M67.5049 47.8806C67.9709 47.8317 68.4293 48.2337 68.5286 48.7786L69.0682 51.7384C69.1675 52.2833 68.8028 52.7718 68.2535 52.8295L65.2699 53.1431C64.7207 53.2008 64.2623 52.7988 64.2462 52.2452L64.1586 49.2379C64.1425 48.6842 64.5072 48.1957 64.9733 48.1467L67.5049 47.8806ZM67.367 49.1017L65.361 49.3126L65.4369 51.9189L67.8347 51.6669L67.367 49.1017Z" fill="#007AD2"/>
<path d="M69.685 68.0429C70.1534 68.0592 70.5825 67.6262 70.6436 67.0757L70.9754 64.0855C71.0365 63.535 70.6385 63.0731 70.0866 63.0539L67.0884 62.9492C66.5365 62.9299 66.1073 63.3629 66.1298 63.9163L66.2522 66.9224C66.2747 67.4758 66.6726 67.9377 67.141 67.954L69.685 68.0429ZM69.4623 66.8344L67.4465 66.764L67.3404 64.1587L69.7499 64.2428L69.4623 66.8344Z" fill="#007AD2"/>
<path d="M10 32.4C10.8346 32.4 11.5199 33.0389 11.5935 33.8543L11.6 34V37C11.6 37.8345 10.961 38.5199 10.1456 38.5934L10 38.6H6V37.4H10C10.1933 37.4 10.3546 37.2628 10.3919 37.0806L10.4 37V34C10.4 33.8067 10.2629 33.6454 10.0806 33.6081L10 33.6H6V32.4H10Z" fill="#007AD2"/>
<path d="M12.0837 41.4711C12.4151 41.4711 12.6837 41.7398 12.6837 42.0711C12.6837 42.3694 12.4662 42.6168 12.1811 42.6633L12.0837 42.6711H6.61074C6.27937 42.6711 6.01074 42.4025 6.01074 42.0711C6.01074 41.7729 6.22833 41.5255 6.51342 41.479L6.61074 41.4711H12.0837ZM23.4952 41.4711C23.8265 41.4711 24.0952 41.7398 24.0952 42.0711C24.0952 42.3694 23.8776 42.6168 23.5925 42.6633L23.4952 42.6711H17.9075C17.5761 42.6711 17.3075 42.4025 17.3075 42.0711C17.3075 41.7729 17.5251 41.5255 17.8101 41.479L17.9075 41.4711H23.4952Z" fill="#007AD2"/>
</svg>
