<svg width="83" height="80" viewBox="0 0 83 80" fill="none" xmlns="http://www.w3.org/2000/svg">
<path d="M7.15059 0V79.6078H6.85059V0H7.15059Z" stroke="#DFDFDF"/>
<path d="M41.8459 0V79.6078H41.5459V0H41.8459Z" stroke="#DFDFDF"/>
<path d="M76.5891 0V79.6078H76.2891V0H76.5891Z" stroke="#DFDFDF"/>
<path d="M81.938 5.34021V5.64021H0V5.34021H81.938Z" stroke="#DFDFDF"/>
<path d="M82.5297 40.0828V40.3828H0.176758V40.0828H82.5297Z" stroke="#DFDFDF"/>
<path d="M81.9383 74.8255V75.1255H0.176758V74.8255H81.9383Z" stroke="#DFDFDF"/>
<path d="M29.5542 16.4713L29.5061 70.2191L29.2061 70.2188L29.2542 16.471L29.5542 16.4713Z" stroke="#DFDFDF"/>
<path d="M55.6105 8.91211L55.7515 70.2186L55.4515 70.2193L55.3105 8.9128L55.6105 8.91211Z" stroke="#DFDFDF"/>
<path d="M1.90409 26.9519C10.2662 32.4506 19.4299 35.0364 29.3991 34.7106C39.1132 34.3931 47.6253 32.2159 54.9372 28.1798L55.5274 27.8484L55.6761 28.109C48.189 32.3827 39.4326 34.6829 29.4089 35.0104C19.5958 35.3311 10.5546 32.847 2.28914 27.5592L1.73926 27.2026L1.90409 26.9519Z" stroke="#DFDFDF"/>
<path d="M19.6985 10.1961C23.6262 18.9412 31.6588 24.8202 43.8109 27.8331C55.7681 30.7978 68.0212 29.0353 80.5761 22.5418L81.2041 22.2132L81.3445 22.4783C68.5072 29.2736 55.9698 31.1569 43.7387 28.1243C31.7004 25.1395 23.6562 19.3461 19.6201 10.7443L19.4248 10.319L19.6985 10.1961Z" stroke="#DFDFDF"/>
<path d="M35.8205 54.9542L34.3507 54.954L33.8965 56.4078L33.8633 56.4867C33.7835 56.6354 33.6258 56.7275 33.4567 56.7242L33.3715 56.7145L29.8071 55.9608V65.8958L33.8058 65.8949C33.8578 61.574 34.5277 57.925 35.8205 54.9542ZM21.3881 51.9178L21.31 51.9362L20.9625 52.0061L20.5703 52.0765L19.0286 52.3225C18.9414 52.337 18.8573 52.3513 18.7761 52.3654L18.3217 52.45L17.9243 52.5363L17.5709 52.628C17.3471 52.6918 17.144 52.7619 16.9446 52.8434L16.7038 52.9474L16.5151 53.1204C13.6542 55.7944 12.1621 60.0445 12.0596 65.8954L28.9041 65.8958V55.9138L25.117 56.7145C24.9173 56.7567 24.7182 56.6602 24.6251 56.4867L24.5919 56.4078L24.1376 54.954L22.0857 54.9549C21.8816 54.9549 21.7069 54.8194 21.6518 54.6303L21.6358 54.5463L21.3881 51.9178ZM48.0705 48.406L48.1555 48.3701C47.8256 48.5177 47.4863 48.6473 47.1337 48.7621L46.7918 48.8689L46.4581 48.9632C46.3466 48.993 46.2341 49.0212 46.1181 49.0485L45.7574 49.1282C45.6947 49.1412 45.6306 49.1541 45.5648 49.167L44.9161 49.2845L44.1234 49.4125L43.2235 49.5535C43.1306 49.5687 43.0406 49.5838 42.9534 49.5987L42.4619 49.6874C41.6155 49.8495 41.0516 50.0138 40.4793 50.268L40.3927 50.3075L40.1992 50.4828C36.7842 53.6537 35.0033 58.706 34.8814 65.6695L52.6335 65.67L53.4485 53.35L50.9486 54.6528L50.8666 54.6859C50.6721 54.7432 50.4611 54.6625 50.3549 54.4902L50.3161 54.4109L48.0757 48.4221L48.0705 48.406ZM56.4325 55.502H54.3815L53.7085 65.67H57.0895L56.4325 55.502ZM62.8661 48.463L60.6415 54.4109C60.557 54.6367 60.3132 54.7514 60.0909 54.6859L60.0089 54.6528L57.3635 53.274L58.1645 65.67L75.9212 65.6695C75.8022 58.878 74.1053 53.9044 70.8534 50.7212L70.6034 50.4828L70.4097 50.3065L70.1671 50.2009C69.7652 50.0335 69.3543 49.9065 68.8343 49.7895L68.5647 49.7318L68.1025 49.6432L67.579 49.5535L66.3959 49.368L65.6566 49.2448L65.2378 49.167L65.1402 49.1477L65.0451 49.1282L64.6844 49.0485L64.3444 48.9632L64.0107 48.8689L63.6689 48.7621C63.4338 48.6856 63.2046 48.6025 62.9802 48.5118L62.8661 48.463ZM35.3056 51.2406L30.2641 55.1368L33.1571 55.7473L33.5869 54.3701L33.6189 54.2933C33.6833 54.1721 33.8 54.0865 33.9352 54.0613L34.0182 54.0536L35.9915 54.053L36.2201 51.6124C35.9619 51.5247 35.7121 51.4267 35.462 51.3149C35.4088 51.2911 35.3567 51.2663 35.3056 51.2406ZM23.439 51.2228C23.3768 51.2549 23.3131 51.2856 23.2477 51.3149C22.9697 51.4392 22.6837 51.5485 22.3865 51.6453L22.2731 51.6788L22.4967 54.053L24.4702 54.0536C24.6397 54.0536 24.7923 54.1478 24.8695 54.2933L24.9015 54.3701L25.3312 55.7473L28.4211 55.0948L23.439 51.2228ZM25.2196 46.6348L25.2323 46.7496C25.41 48.5137 25.0737 49.8372 24.2056 50.6766L29.3693 54.6876L34.5292 50.7005C33.6246 49.8455 33.2843 48.4766 33.489 46.6411C32.1939 47.665 30.768 48.2646 29.356 48.2646C27.9412 48.2646 26.5149 47.6626 25.2196 46.6348ZM54.5435 53.048L54.4405 54.598H56.3735L56.2745 53.063L55.7463 53.4726C55.5768 53.6036 55.3482 53.6197 55.1642 53.521L55.0884 53.4717L54.5435 53.048ZM61.7695 48.816L57.3355 52.243L59.9738 53.6174L61.7695 48.816ZM49.2235 48.914L50.9842 53.6174L53.5525 52.279L49.2235 48.914ZM17.3734 37.6879C17.4149 37.7284 17.4479 37.7764 17.471 37.829L17.498 37.911L20.1663 49.7478C20.2211 49.9906 20.0681 50.2317 19.8246 50.2863C19.6082 50.3348 19.3931 50.2197 19.3096 50.0229L19.2847 49.9455L16.6457 38.2431L16.564 38.1674C15.6683 37.3781 14.6092 37.0734 13.3528 37.2479L13.0988 37.2892C10.7422 37.727 8.28262 39.2282 7.93378 40.4333C7.67227 41.3367 9.63218 42.2154 11.3088 41.8656C12.1679 41.6864 13.0323 41.3664 13.6079 41.0104C14.125 40.6905 14.2805 40.4463 14.2083 40.3162C14.0018 39.9444 13.4751 39.8222 12.5174 40.0314C12.2737 40.0847 12.0328 39.9308 11.9793 39.6877C11.9259 39.4446 12.0802 39.2043 12.324 39.1511C13.6272 38.8663 14.5558 39.0818 14.9988 39.8796C15.1003 40.0623 15.1454 40.2431 15.1406 40.4204L17.5091 49.7358C17.5705 49.9771 17.4242 50.2222 17.1823 50.2834C16.9673 50.3378 16.7491 50.2286 16.6602 50.0342L16.6332 49.9575L14.4813 41.4968C14.3625 41.5931 14.2296 41.6864 14.0842 41.7763C13.4116 42.1923 12.4497 42.5484 11.4938 42.7478C10.5101 42.953 9.42941 42.8294 8.57443 42.4716L12.9292 52.7911C13.026 53.0205 12.918 53.2847 12.688 53.3812C12.4835 53.467 12.2515 53.3915 12.1344 53.2125L12.0962 53.1407L7.03654 41.1499C6.99567 41.0531 6.99131 40.95 7.01723 40.856C6.98436 40.6436 6.99749 40.4184 7.06555 40.1833C7.53198 38.572 10.2767 36.8967 12.9333 36.4031C14.6723 36.0801 16.1688 36.511 17.3734 37.6879ZM37.1043 51.8661L37.0299 52.6551C37.1811 52.4151 37.3376 52.181 37.4995 51.9526C37.3627 51.9262 37.2317 51.8968 37.1043 51.8661ZM50.4948 42.8173L50.5007 42.8645C50.7321 45.0026 50.3363 46.6034 49.2913 47.6134L55.4184 52.3721L61.54 47.6409C60.4671 46.6266 60.0635 45.0029 60.306 42.8259C58.7691 44.04 57.0776 44.7512 55.4026 44.7512C53.7239 44.7512 52.0317 44.0369 50.4948 42.8173ZM37.7465 34.7608C34.9549 35.1682 32.1628 35.3719 29.3702 35.3719C26.5777 35.3719 23.7848 35.1682 20.9918 34.7608L20.9899 35.3334C20.9899 41.439 25.2931 47.3633 29.356 47.3633C33.4244 47.3633 37.7479 41.4327 37.7479 35.3333L37.7465 34.7608ZM65.356 28.7299C62.0444 29.2131 58.7322 29.4547 55.4195 29.4547C52.1061 29.4547 48.7923 29.213 45.4783 28.7297L45.4767 29.4091C45.4767 36.653 50.5821 43.6818 55.4026 43.6818C60.2294 43.6818 65.3591 36.6456 65.3591 29.409L65.356 28.7299ZM27.1684 24.0725C26.6572 24.1294 26.1859 24.2144 25.7517 24.3273L25.2401 26.1804C25.1738 26.4204 24.925 26.5613 24.6844 26.4951C24.4438 26.429 24.3026 26.1809 24.3689 25.9409L24.7166 24.6783C23.5255 25.1913 22.692 25.987 22.1294 27.0578C21.6165 28.0342 21.3201 29.1164 21.1588 30.6719L21.11 31.2085L21.0705 31.7831L21.0397 32.3988L21.0169 33.0587L21.0015 33.7658L21.0004 33.8511C23.791 34.2641 26.5809 34.4706 29.3702 34.4706C32.1595 34.4706 34.9487 34.2641 37.7378 33.8511L37.7363 33.7937L37.7207 33.1001L37.6977 32.4531L37.6666 31.8499L37.6268 31.2874L37.5776 30.7625C37.4152 29.2414 37.1167 28.1881 36.6009 27.2357C36.0444 26.2084 35.2192 25.4235 34.0425 24.8826L34.4286 25.9012C34.5169 26.134 34.3993 26.3941 34.1659 26.4822C33.9584 26.5605 33.7293 26.4765 33.6189 26.2934L33.5833 26.2202L32.9219 24.4719C32.5097 24.3535 32.0643 24.2567 31.5837 24.1815L32.2549 27.4371C32.3069 27.6887 32.1386 27.9261 31.8958 27.9711L31.8123 27.9787H26.9175C26.6599 27.9787 26.4607 27.7665 26.4656 27.5202L26.4749 27.4371L27.1684 24.0725ZM52.8105 16.0388C52.2062 16.1018 51.6483 16.1971 51.1337 16.326L50.5193 18.5496C50.4406 18.8343 50.1454 19.0014 49.86 18.923C49.5746 18.8445 49.407 18.5501 49.4856 18.2655L49.9094 16.7295C47.2592 17.8476 46.0662 20.2011 45.6643 24.0432L45.6082 24.6508L45.5847 24.9636L45.5547 25.4448L45.5376 25.7809L45.5099 26.5L45.4897 27.3729L45.4868 27.6501C48.7985 28.1403 52.1094 28.3854 55.4195 28.3854C58.7285 28.3854 62.0374 28.1405 65.3462 27.6505L65.3408 27.3413L65.322 26.6015L65.2957 25.9075C65.2907 25.7954 65.2853 25.6852 65.2796 25.5767L65.241 24.9461L65.1934 24.3545C65.0104 22.3484 64.651 21.0069 63.9982 19.8017C63.3384 18.5834 62.36 17.6526 60.9641 17.0109L61.4209 18.2183C61.5256 18.4945 61.3861 18.8031 61.1092 18.9076C60.863 19.0005 60.5912 18.9008 60.4602 18.6836L60.4181 18.5967L59.6321 16.5227C59.1432 16.3825 58.6149 16.2677 58.0448 16.1785L58.8419 20.0406C58.9042 20.3421 58.7 20.6265 58.4072 20.6757L58.3169 20.6832H52.5094C52.2007 20.6832 51.9627 20.4263 51.9735 20.1303L51.9844 20.0406L52.8105 16.0388ZM28.1069 24.0014L27.4713 27.0773H31.2572L30.6352 24.0653C30.3372 24.0381 30.0275 24.0177 29.7057 24.0044L29.3336 23.9922C28.9041 23.9815 28.4955 23.9846 28.1069 24.0014ZM53.92 15.9611L53.1673 19.6138H57.6586L56.9201 16.0405C56.4324 15.9959 55.9181 15.9668 55.376 15.9534C54.8663 15.9408 54.3814 15.9432 53.92 15.9611ZM76.5509 66.9726L76.464 66.9796C76.2775 66.9796 76.1132 66.8846 76.0171 66.7405L47.3331 66.7406C47.2895 66.7656 47.2413 66.7835 47.1901 66.7928L47.1089 66.8001L34.7371 66.8L34.7319 66.8082C34.634 66.9136 34.494 66.9796 34.3386 66.9796C34.1797 66.9796 34.037 66.9107 33.9388 66.8012L11.9769 66.8011C11.8957 66.9211 11.7581 67 11.6021 67C11.3525 67 11.1502 66.7982 11.1502 66.5494C11.1502 60.1259 12.7278 55.4182 15.9061 52.4543L16.1538 52.2297L16.2602 52.1599C16.7732 51.9183 17.2447 51.7605 17.8855 51.62L18.3401 51.5281L18.8588 51.437L20.188 51.2267L20.7719 51.1246L21.102 51.0586L21.4011 50.9903L21.6834 50.9166L21.963 50.834L22.1061 50.7884C22.3736 50.7014 22.6299 50.6035 22.878 50.4925L23.0193 50.4243L23.1511 50.35L23.1633 50.3374C23.2021 50.3025 23.246 50.2753 23.2926 50.2561C24.2763 49.5692 24.6002 48.2062 24.2265 46.0755C24.2083 45.972 24.2271 45.8706 24.2735 45.7847C21.8522 43.3456 20.0862 39.4039 20.0862 35.3334L20.0896 34.6222C19.4184 34.5137 18.7472 34.3936 18.076 34.2616C17.8312 34.2135 17.6718 33.9765 17.7201 33.7323C17.7683 33.4882 18.0059 33.3292 18.2508 33.3774C18.8661 33.4983 19.4813 33.6092 20.0965 33.7101L20.1118 32.9509L20.1374 32.2587L20.1613 31.8044L20.2095 31.135L20.2509 30.6974L20.3006 30.2673L20.3593 29.845C20.3699 29.7753 20.3809 29.706 20.3923 29.637L20.466 29.2274L20.5506 28.8269C20.5656 28.761 20.5812 28.6954 20.5972 28.6302L20.6995 28.2442C21.3156 26.0826 22.5483 24.4129 25.0124 23.61L25.271 22.6768C25.3373 22.4368 25.5861 22.2959 25.8267 22.3621C26.0672 22.4282 26.2085 22.6763 26.1422 22.9163L26.0244 23.3443C26.4399 23.2588 26.8846 23.1937 27.3603 23.15L27.4527 22.7056C27.4905 22.5223 27.6368 22.3844 27.8164 22.3527L27.8952 22.3459H30.8346C31.0222 22.3459 31.1872 22.4609 31.2545 22.63L31.2772 22.7056L31.3901 23.2456C31.7931 23.3 32.1738 23.3678 32.5333 23.4483L32.4011 23.1039C32.3128 22.8711 32.4304 22.611 32.6638 22.5229C32.8713 22.4446 33.1004 22.5286 33.2107 22.7117L33.2463 22.7849L33.6134 23.749C35.9748 24.55 37.2306 26.0316 37.8979 27.9579L38.0198 28.336L38.1279 28.7249C38.1617 28.8563 38.1933 28.9894 38.2229 29.1242L38.3057 29.5333L38.3772 29.9521C38.3992 30.0933 38.4195 30.2359 38.4381 30.3801L38.4894 30.8168L38.5318 31.2621L38.5661 31.7153L38.5932 32.1763L38.6223 32.8813L38.6351 33.3597L38.64 33.7103C39.2552 33.6094 39.8703 33.4984 40.4855 33.3774C40.7303 33.3292 40.968 33.4881 41.0163 33.7323C41.0646 33.9765 40.9052 34.2134 40.6604 34.2616C39.9904 34.3934 39.3203 34.5135 38.6502 34.6218L38.6516 35.3333C38.6516 39.4083 36.872 43.3542 34.4392 45.7933C34.4837 45.8767 34.5009 45.9751 34.4833 46.0755C34.1146 48.1775 34.4248 49.5324 35.3769 50.23C35.4862 50.2462 35.5879 50.3032 35.6603 50.3964L35.671 50.414C35.7231 50.4417 35.7767 50.4679 35.8318 50.4925C36.5065 50.7943 37.1913 50.9874 38.105 51.1552C38.5312 50.6329 38.9884 50.1451 39.4774 49.692L39.7389 49.4556L39.8651 49.3727C40.5215 49.0636 41.1207 48.8701 41.9763 48.6932L42.4702 48.5978C42.5574 48.582 42.6472 48.5662 42.7398 48.5502L43.6561 48.4026L44.4767 48.2735L44.933 48.1963L45.3328 48.1224L45.6898 48.0487L46.0178 47.9719L46.3305 47.8889L46.6417 47.7964C46.6942 47.78 46.7472 47.7631 46.801 47.7456C47.1184 47.6423 47.4224 47.5261 47.7168 47.3944C47.8304 47.3436 47.9387 47.2873 48.0417 47.2256L47.9911 47.2793C48.0517 47.2017 48.1296 47.1453 48.2151 47.1113L48.2996 47.0508C49.3954 46.2139 49.7485 44.6159 49.3167 42.154C49.2951 42.0311 49.3175 41.9106 49.3726 41.8087C46.5002 38.916 44.4045 34.239 44.4045 29.4091L44.4057 28.6337L44.407 28.565C43.6112 28.4364 42.8154 28.2939 42.0195 28.1375C41.729 28.0804 41.54 27.7992 41.5972 27.5095C41.6545 27.2198 41.9364 27.0312 42.2268 27.0883C42.9569 27.2318 43.6869 27.3635 44.4169 27.4831L44.4176 27.3588L44.4277 26.8562C44.4396 26.3558 44.4576 25.8626 44.4846 25.3783L44.5146 24.8971L44.5536 24.3949L44.6008 23.9002C44.6094 23.8184 44.6184 23.737 44.6277 23.6559L44.6886 23.1735C44.7106 23.0141 44.7342 22.8562 44.7596 22.6998L44.8415 22.2354C44.8707 22.0821 44.9018 21.9305 44.935 21.7806L45.0409 21.336C45.7387 18.6077 47.1986 16.4937 50.2495 15.4998L50.5559 14.3927C50.6259 14.1397 50.8669 13.9795 51.12 14.0021L51.2152 14.0194C51.5006 14.0978 51.6682 14.3922 51.5896 14.6769L51.4483 15.185C51.9419 15.0834 52.47 15.006 53.0351 14.9542L53.1444 14.4269C53.1893 14.2095 53.3628 14.0458 53.5759 14.0083L53.6694 14.0001H57.1569C57.3794 14.0001 57.5752 14.1366 57.655 14.3372L57.6819 14.4269L57.8158 15.0676C58.2934 15.1321 58.7445 15.2123 59.1706 15.3077L59.0154 14.8995C58.9106 14.6233 59.0501 14.3147 59.3271 14.2102C59.5732 14.1173 59.845 14.217 59.976 14.4342L60.0182 14.5211L60.4521 15.6643C63.9106 16.8369 65.3709 19.2397 65.9861 22.3463L66.0663 22.783L66.1364 23.2286L66.1969 23.6826L66.2486 24.1447L66.2921 24.6146L66.3282 25.0921L66.3575 25.5767L66.3902 26.3165L66.4117 27.0706L66.4182 27.4832C67.1478 27.3635 67.8774 27.2319 68.6071 27.0883C68.8976 27.0312 69.1795 27.2197 69.2368 27.5094C69.2941 27.7991 69.105 28.0803 68.8146 28.1374C68.0188 28.294 67.223 28.4366 66.4271 28.5652L66.4313 29.409C66.4313 34.2433 64.3202 38.9245 61.4342 41.8184C61.4862 41.9171 61.5068 42.0343 61.4858 42.154C61.0484 44.648 61.4165 46.2555 62.5462 47.0831C62.6755 47.1021 62.7963 47.1698 62.8822 47.2804L62.8947 47.3012C62.9566 47.3341 63.0203 47.3652 63.0858 47.3944C63.3801 47.5261 63.6841 47.6423 64.0015 47.7456L64.0817 47.7714L64.1608 47.7964L64.472 47.8889L64.7847 47.9719L65.1127 48.0487L65.4697 48.1224L65.8695 48.1963L66.3258 48.2735L67.4712 48.4531L68.0627 48.5502L68.1995 48.5741L68.3323 48.5978L68.8263 48.6932C69.5749 48.848 70.1272 49.0155 70.6933 49.262L70.9374 49.3727L71.0636 49.4556L71.3252 49.692C75.0315 53.1268 76.9135 58.5489 76.9971 65.927L76.9981 66.23L77.0001 66.215V66.4449C77.0001 66.7107 76.8056 66.9312 76.5509 66.9726Z" fill="#007AD2"/>
</svg>
