<svg width="83" height="80" viewBox="0 0 83 80" fill="none" xmlns="http://www.w3.org/2000/svg">
<path d="M41.1768 4.99707C21.9061 4.99707 6.28418 20.619 6.28418 39.8897C6.28418 59.1604 21.9061 74.7824 41.1768 74.7824C60.4475 74.7824 76.0695 59.1604 76.0695 39.8897C76.0695 20.619 60.4475 4.99707 41.1768 4.99707ZM41.1768 5.29707C60.2818 5.29707 75.7695 20.7847 75.7695 39.8897C75.7695 58.9947 60.2818 74.4824 41.1768 74.4824C22.0718 74.4824 6.58418 58.9947 6.58418 39.8897C6.58418 20.7847 22.0718 5.29707 41.1768 5.29707Z" stroke="#DFDFDF"/>
<path d="M41.1763 14.0044C26.8803 14.0044 15.291 25.5936 15.291 39.8897C15.291 54.1857 26.8803 65.775 41.1763 65.775C55.4724 65.775 67.0616 54.1857 67.0616 39.8897C67.0616 25.5936 55.4724 14.0044 41.1763 14.0044ZM41.1763 14.3044C55.3067 14.3044 66.7616 25.7593 66.7616 39.8897C66.7616 54.0201 55.3067 65.475 41.1763 65.475C27.0459 65.475 15.591 54.0201 15.591 39.8897C15.591 25.7593 27.0459 14.3044 41.1763 14.3044Z" stroke="#DFDFDF"/>
<path d="M30.8822 11.4309C24.4035 11.4309 19.1514 16.683 19.1514 23.1618C19.1514 29.6406 24.4035 34.8927 30.8822 34.8927C37.361 34.8927 42.6131 29.6406 42.6131 23.1618C42.6131 16.683 37.361 11.4309 30.8822 11.4309ZM30.8822 11.7309C37.1954 11.7309 42.3131 16.8487 42.3131 23.1618C42.3131 29.4749 37.1954 34.5927 30.8822 34.5927C24.5691 34.5927 19.4514 29.4749 19.4514 23.1618C19.4514 16.8487 24.5691 11.7309 30.8822 11.7309Z" stroke="#DFDFDF"/>
<path d="M82.3529 40.0828V40.3828H0V40.0828H82.3529Z" stroke="#DFDFDF"/>
<path d="M41.6692 1.28565e-05L41.6496 79.6079L41.3496 79.6078L41.3692 -6.10352e-05L41.6692 1.28565e-05Z" stroke="#DFDFDF"/>
<path d="M24.9201 21.875V55.3309H24.6201V21.875H24.9201Z" stroke="#DFDFDF"/>
<path d="M34.9201 21.875V55.3309H34.6201V21.875H34.9201Z" stroke="#DFDFDF"/>
<path d="M50.9201 21.875V55.3309H50.6201V21.875H50.9201Z" stroke="#DFDFDF"/>
<path d="M56.9201 21.875V55.3309H56.6201V21.875H56.9201Z" stroke="#DFDFDF"/>
<path d="M36.9163 8.62898L34.3292 10.7196C34.1194 10.8887 33.851 10.9552 33.5872 10.9034L30.335 10.2653C27.2276 9.65481 24.0707 11.3145 22.8099 14.221L21.4675 17.315C21.3607 17.5621 21.1554 17.745 20.8992 17.8223L17.6965 18.7873C14.647 19.7067 12.6658 22.5816 12.891 25.7597L13.1338 29.1654C13.1526 29.4299 13.0553 29.6875 12.8663 29.8737L10.4458 32.2566C8.18685 34.4849 7.76859 37.94 9.43086 40.6405L11.22 43.5482C11.3583 43.773 11.3913 44.047 11.3102 44.3001L10.2636 47.554C9.29159 50.581 10.5252 53.8388 13.2578 55.4603L16.1565 57.1813C16.385 57.3171 16.5411 57.5445 16.5863 57.8084L17.157 61.1561C17.6946 64.3069 20.3113 66.6291 23.5043 66.7894L26.8275 66.9534C27.0936 66.9668 27.3376 67.0959 27.5012 67.311L29.5268 69.9747C30.8069 71.6593 32.8176 72.6471 34.9405 72.6471C35.9253 72.6471 36.8968 72.4325 37.7911 72.0155L40.7949 70.6138C41.039 70.4997 41.3153 70.4996 41.5584 70.6133L44.5628 72.0153C47.4385 73.3594 50.9085 72.5026 52.8284 69.9736L54.8524 67.3103C55.0153 67.0968 55.2591 66.9683 55.526 66.9553L58.8504 66.7901C62.042 66.6297 64.6585 64.3082 65.1984 61.1582L65.7685 57.8089C65.8135 57.5457 65.9685 57.3199 66.1965 57.185L69.0971 55.4625C71.8301 53.8396 73.0635 50.5817 72.0909 47.5556L71.0438 44.2998C70.963 44.0477 70.9959 43.7742 71.1339 43.5502L72.9223 40.6409C74.5843 37.9398 74.1653 34.4851 71.9055 32.2584L69.4853 29.8747C69.2971 29.689 69.2 29.4313 69.2188 29.1664L69.4615 25.7616C69.6868 22.5827 67.7054 19.7078 64.6555 18.7886L61.4502 17.8233C61.1951 17.7463 60.9893 17.563 60.8834 17.3182L59.5425 14.222C58.2812 11.3136 55.124 9.65416 52.0145 10.2654L48.7647 10.9034C48.5008 10.9552 48.2325 10.8886 48.0211 10.7182L45.4366 8.62977C42.9624 6.63347 39.3897 6.6333 36.9163 8.62898ZM44.6975 9.5451L47.2822 11.6337C47.7645 12.0224 48.3859 12.1767 48.9913 12.0578L52.2413 11.4198C54.8083 10.9152 57.4218 12.2889 58.463 14.6898L59.8037 17.7854C60.047 18.348 60.5235 18.7725 61.1106 18.9497L64.3162 19.9151C66.8393 20.6755 68.4744 23.048 68.288 25.6782L68.0453 29.0828C68.0021 29.6907 68.226 30.285 68.6595 30.7126L71.0798 33.0965C72.9492 34.9385 73.2952 37.79 71.9202 40.0245L70.132 42.9336C69.8139 43.45 69.7379 44.0801 69.9236 44.6595L70.9709 47.9157C71.7756 50.4194 70.7576 53.1082 68.4964 54.451L65.5966 56.173C65.0716 56.4837 64.712 57.0073 64.6087 57.6111L64.0387 60.9601C63.592 63.5665 61.4328 65.4823 58.7917 65.6151L55.4682 65.7802C54.8549 65.8102 54.29 66.1079 53.9164 66.5976L51.8916 69.262C50.3066 71.3497 47.4346 72.0589 45.0606 70.9493L42.0563 69.5474C41.4977 69.2862 40.8564 69.2864 40.297 69.5479L37.2938 70.9494C36.5557 71.2935 35.7538 71.4706 34.9405 71.4706C33.1836 71.4706 31.5202 70.6534 30.4634 69.2627L28.4377 66.5987C28.0643 66.108 27.4995 65.8093 26.8861 65.7784L23.5628 65.6144C20.9208 65.4817 18.7616 63.5656 18.3168 60.9583L17.746 57.6102C17.6425 57.0065 17.2825 56.4819 16.7573 56.1698L13.8583 54.4486C11.5976 53.1071 10.5794 50.4184 11.3837 47.914L12.4303 44.6598C12.6163 44.0796 12.5404 43.4492 12.222 42.9317L10.4328 40.0239C9.0577 37.7899 9.40297 34.9378 11.2716 33.0945L13.6919 30.7119C14.1262 30.284 14.3505 29.6897 14.3073 29.0819L14.0645 25.6763C13.8782 23.0469 15.5132 20.6743 18.036 19.9138L21.2387 18.9487C21.827 18.7713 22.303 18.347 22.5471 17.7826L23.8892 14.6893C24.9301 12.2898 27.5434 10.9158 30.1083 11.4197L33.3607 12.0579C33.9657 12.1766 34.5873 12.0226 35.0686 11.6346L37.6554 9.54431C39.6974 7.89675 42.6548 7.89689 44.6975 9.5451Z" fill="#007AD2"/>
<path d="M29.9791 45.6892C29.0435 45.6892 28.2822 46.4468 28.2822 47.3823C28.2822 48.3178 29.0435 49.0769 29.9791 49.0769C30.9147 49.0769 31.6722 48.3179 31.6722 47.3823C31.6722 46.4467 30.9147 45.6892 29.9791 45.6892ZM29.9791 46.8657C30.265 46.8657 30.4957 47.0964 30.4957 47.3823C30.4957 47.6686 30.2644 47.9004 29.9791 47.9004C29.6925 47.9004 29.4587 47.6673 29.4587 47.3823C29.4587 47.0978 29.6919 46.8657 29.9791 46.8657Z" fill="#007AD2"/>
<path d="M44.3535 21.875C46.7214 21.875 48.6588 23.7442 48.7707 26.0849L48.7758 26.2989V27.4037L48.7738 27.5795L48.7572 27.9908C48.6903 29.1854 48.4404 31.1177 47.9599 32.7125L47.8671 33.0073H54.3061C56.1343 33.0073 57.6236 34.4943 57.6236 36.3249C57.6236 37.1733 57.3032 37.9477 56.7751 38.536C57.3032 39.1243 57.6236 39.8987 57.6244 40.7472C57.6244 41.5972 57.304 42.3716 56.7759 42.9599C57.304 43.5482 57.6244 44.3226 57.6244 45.1711C57.6244 46.6998 56.5875 47.9891 55.1793 48.3721C55.3298 48.7504 55.4109 49.1634 55.4109 49.595C55.4109 51.3602 54.0247 52.8094 52.2814 52.9073L52.0934 52.9125H42.8302C41.6656 52.9125 40.5132 52.746 39.399 52.4189L38.983 52.2887L35.1853 51.0218C34.6777 52.0809 33.6261 52.8302 32.3949 52.9062L32.1881 52.9125H25.5531C24.9845 52.9125 24.5148 52.4808 24.4547 51.9267L24.4482 51.8062V31.901C24.4482 31.331 24.88 30.8612 25.4329 30.8011L25.5531 30.7946H32.1881C33.5902 30.7946 34.7892 31.6693 35.2756 32.8985C37.9731 32.2404 40.5837 28.6968 41.4987 25.3974L41.571 25.1231L42.1739 22.7119C42.2886 22.2611 42.6686 21.9335 43.123 21.8821L43.2486 21.875H44.3535ZM25.6247 51.7361H32.1881C32.9653 51.7361 33.669 51.3165 34.0482 50.658L34.1243 50.5133L34.573 49.5773L39.3542 51.1723C40.3382 51.4995 41.3566 51.6857 42.3876 51.7272L42.8302 51.7361H52.0934C53.2732 51.7361 54.2344 50.7744 54.2344 49.595C54.2344 49.3871 54.2058 49.1855 54.1504 48.9945L54.0862 48.8071L53.5989 47.5826L54.8706 47.2368C55.7932 46.9859 56.4479 46.1416 56.4479 45.1711C56.4479 44.6971 56.2931 44.2491 56.0118 43.8803L55.9004 43.7458L55.195 42.9599L55.9004 42.1741C56.2521 41.7823 56.4479 41.2818 56.4479 40.7483C56.4475 40.2737 56.2924 39.8253 56.011 39.4564L55.8996 39.3219L55.1942 38.536L55.8996 37.7502C56.2512 37.3585 56.4471 36.8581 56.4471 36.3249C56.4471 35.1963 55.5673 34.2678 54.4586 34.1892L54.3061 34.1838H46.2414L46.7496 32.6396C47.2232 31.2005 47.553 29.0401 47.5948 27.6819L47.5993 27.4037V26.2989C47.5993 24.5703 46.2417 23.1524 44.5374 23.0566L44.3535 23.0515L43.3007 23.051L42.7124 25.408C41.7453 29.2825 38.8241 33.0894 35.7827 33.9801L35.5544 34.0414L34.5588 34.2843L34.1817 33.3314C33.8799 32.5688 33.1693 32.0405 32.3528 31.9774L32.1881 31.9711L25.6247 31.971V51.7361Z" fill="#007AD2"/>
</svg>
