<svg width="83" height="80" viewBox="0 0 83 80" fill="none" xmlns="http://www.w3.org/2000/svg">
<path d="M6.92695 0.118469V38.6027H6.62695V0.118469" stroke="#DFDFDF"/>
<path d="M75.927 0.118469V38.6027H75.627V0.118469" stroke="#DFDFDF"/>
<path d="M59.927 5.65448V38.6027H59.627V5.65448" stroke="#DFDFDF"/>
<path d="M47.927 5.65448V38.6027H47.627V5.65448" stroke="#DFDFDF"/>
<path d="M19.927 5.65448V38.6027H19.627V5.65448" stroke="#DFDFDF"/>
<path d="M17.927 51.4703V79.902H17.627V51.4703" stroke="#DFDFDF"/>
<path d="M37.927 51.4703V79.902H37.627V51.4703" stroke="#DFDFDF"/>
<path d="M36.3572 0.0732422L36.6432 0.163671L11.4208 79.9473L11.1348 79.8568" stroke="#DFDFDF"/>
<path d="M50.357 0.0739746L50.6436 0.162881L25.8871 79.9465L25.6006 79.8576" stroke="#DFDFDF"/>
<path d="M82.3529 10.2003V10.5003H0V10.2003" stroke="#DFDFDF"/>
<path d="M82.3529 21.2003V21.5003H0V21.2003" stroke="#DFDFDF"/>
<path d="M82.3529 33.2003V33.5003H0V33.2003" stroke="#DFDFDF"/>
<path d="M82.3529 71.2003V71.5003H0V71.2003" stroke="#DFDFDF"/>
<path d="M46.649 58.0422L46.6494 58.3422L6.77678 58.3973L6.77637 58.0973" stroke="#DFDFDF"/>
<path d="M69.0084 13.0605V13.3605H42.5V13.0605" stroke="#DFDFDF"/>
<path d="M69.0084 29.0605V29.3605H42.5V29.0605" stroke="#DFDFDF"/>
<path d="M72.4399 24.9417V25.2417H54.4121V24.9417" stroke="#DFDFDF"/>
<path d="M72.4399 16.9417V17.2417H54.4121V16.9417" stroke="#DFDFDF"/>
<path d="M66.7053 12.225L66.7972 30.499L66.4972 30.5005L66.4053 12.2265" stroke="#DFDFDF"/>
<path d="M19.3015 6.00787C10.5384 6.00787 3.43457 13.1117 3.43457 21.8748C3.43457 30.6378 10.5384 37.7417 19.3015 37.7417C28.0645 37.7417 35.1684 30.6378 35.1684 21.8748C35.1684 13.1117 28.0645 6.00787 19.3015 6.00787ZM19.3015 6.30787C27.8988 6.30787 34.8684 13.2774 34.8684 21.8748C34.8684 30.4722 27.8988 37.4417 19.3015 37.4417C10.7041 37.4417 3.73457 30.4722 3.73457 21.8748C3.73457 13.2774 10.7041 6.30787 19.3015 6.30787Z" stroke="#DFDFDF"/>
<path d="M47.281 9.99976C47.5733 9.99976 47.8159 10.2131 47.8615 10.4926L47.8692 10.588V32.9409C47.8692 33.2333 47.6559 33.4759 47.3764 33.5215L47.281 33.5292H40.2555C39.9306 33.5292 39.6672 33.2658 39.6672 32.9409C39.6672 32.6485 39.8805 32.406 40.16 32.3604L40.2555 32.3527L46.6924 32.3518V11.1758L18.8239 11.1762C13.3947 11.1762 8.976 15.5029 8.82777 20.8963L8.82393 21.1762V22.3527C8.82393 27.7819 13.1506 32.2006 18.544 32.3489L18.8239 32.3527H34.3289C34.6537 32.3527 34.9171 32.6161 34.9171 32.9409C34.9171 33.2333 34.7038 33.4759 34.4243 33.5215L34.3289 33.5292H18.8239C12.7493 33.5292 7.80661 28.6829 7.65123 22.6457L7.64746 22.3527V21.1762C7.64746 15.1016 12.4937 10.1589 18.5309 10.0035L18.8239 9.99976H47.281Z" fill="#007AD2"/>
<path d="M60.0001 12.3527C60.2924 12.3527 60.535 12.566 60.5806 12.8455L60.5883 12.941V29.4115C60.5883 29.7039 60.375 29.9465 60.0955 29.9921L60.0001 29.9998H48.2354V28.8233L59.4111 28.8228V13.5288L48.2354 13.5292V12.3527H60.0001Z" fill="#007AD2"/>
<path d="M67.0585 17.0586C67.3509 17.0586 67.5935 17.2719 67.6391 17.5514L67.6468 17.6468V24.7057C67.6468 24.998 67.4334 25.2406 67.1539 25.2862L67.0585 25.2939H58.8232V24.1174L66.4697 24.1168V18.2348L58.8232 18.2351V17.0586H67.0585Z" fill="#007AD2"/>
<path d="M67.0624 20.6835L74.6974 20.7289C75.0223 20.7309 75.2841 20.9958 75.2822 21.3207C75.2804 21.613 75.0657 21.8543 74.7859 21.8982L74.6904 21.9054L67.0554 21.8599C66.7306 21.858 66.4688 21.5931 66.4707 21.2682C66.4725 20.9758 66.6872 20.7345 66.967 20.6906L67.0624 20.6835Z" fill="#007AD2"/>
<path d="M39.6936 32.7665C39.7899 32.4562 40.1195 32.2828 40.4298 32.3792C40.709 32.4659 40.8774 32.7415 40.8381 33.022L40.8171 33.1154L33.8509 55.5222C33.4617 56.3018 33.6886 56.7085 34.8008 57.0402C36.1891 57.4543 37.2482 57.6591 37.9598 57.6591C38.2522 57.6591 38.4948 57.8724 38.5404 58.1519L38.5481 58.2473V70.7718C38.5481 71.0642 38.3348 71.3068 38.0553 71.3523L37.9598 71.36H18.015C17.7226 71.36 17.48 71.1467 17.4345 70.8672L17.4268 70.7718V57.6039C17.4268 57.506 17.4512 57.4097 17.4978 57.3237L19.511 53.585L20.7843 51.1902L21.9197 49.0268L22.5344 47.8405L23.6136 45.7209L23.8794 45.189L24.4529 44.021L24.9353 43.0071L25.1423 42.5582L25.3264 42.1481L25.5594 41.606L25.7408 41.1518L25.8328 40.898L25.9018 40.6836C25.9305 40.5862 25.9505 40.5037 25.9618 40.436C26.3439 38.149 25.3139 34.6222 23.485 33.4342C23.2126 33.2573 23.1352 32.8929 23.3121 32.6205C23.4891 32.3481 23.8534 32.2707 24.1259 32.4476C26.4069 33.9293 27.574 37.9255 27.1222 40.6298L27.0923 40.775C27.086 40.8013 27.079 40.8287 27.0714 40.8572L27.018 41.0411L26.9488 41.2508L26.8155 41.6142L26.6467 42.0362L26.4424 42.517L26.2023 43.0569L25.8267 43.8689L25.2674 45.0326L24.4643 46.6485L23.5166 48.5054L22.4236 50.6048L20.964 53.3628L20.0403 55.0889L18.6023 57.7528V70.1828H37.3713V58.8038L37.3228 58.7998C36.6356 58.7283 35.7973 58.55 34.8021 58.2661L34.4645 58.1676C32.7633 57.6603 32.1027 56.567 32.6922 55.234L32.7628 55.085L39.6936 32.7665Z" fill="#007AD2"/>
<path d="M29.1352 57.0157C29.46 57.0157 29.7234 57.2791 29.7234 57.6039C29.7234 57.8963 29.5101 58.1389 29.2306 58.1845L29.1352 58.1922H18.015C17.6901 58.1922 17.4268 57.9288 17.4268 57.6039C17.4268 57.3115 17.6401 57.069 17.9196 57.0234L18.015 57.0157H29.1352Z" fill="#007AD2"/>
</svg>
