<svg width="83" height="80" viewBox="0 0 83 80" fill="none" xmlns="http://www.w3.org/2000/svg">
<path d="M10.0014 0V79.6078H9.90137V0H10.0014Z" stroke="#DFDFDF"/>
<path d="M71.766 0V79.6078H71.666V0H71.766Z" stroke="#DFDFDF"/>
<path d="M82.3529 11.2736V11.3736H0V11.2736H82.3529Z" stroke="#DFDFDF"/>
<path d="M41.5502 5.49017V74.1176H41.4502V5.49017H41.5502Z" stroke="#DFDFDF"/>
<path d="M82.3529 68.9304V69.0304H0V68.9304H82.3529Z" stroke="#DFDFDF"/>
<path d="M17.4901 29.1696L76.9232 64.0776L76.8726 64.1638L17.4395 29.2558L17.4901 29.1696Z" stroke="#DFDFDF"/>
<path d="M64.5194 29.1694L64.5698 29.2558L4.79359 64.1638L4.74316 64.0775L64.5194 29.1694Z" stroke="#DFDFDF"/>
<path d="M41.5 28C50.0604 28 57 34.9396 57 43.5C57 52.0604 50.0604 59 41.5 59C32.9396 59 26 52.0604 26 43.5C26 34.9396 32.9396 28 41.5 28ZM41.5 28.1C32.9948 28.1 26.1 34.9948 26.1 43.5C26.1 52.0052 32.9948 58.9 41.5 58.9C50.0052 58.9 56.9 52.0052 56.9 43.5C56.9 34.9948 50.0052 28.1 41.5 28.1Z" stroke="#DFDFDF"/>
<path d="M41.06 32.4208C43.0331 32.4208 44.8746 32.9469 46.453 33.8019C46.6503 32.2892 47.7026 30.7108 50.991 28.5405C57.1732 24.4628 58.9489 10.9804 41.7177 10.9804C21.2639 10.9804 28.6299 25.5151 33.9571 34.8542C35.9301 33.3415 38.3635 32.4208 41.06 32.4208Z" stroke="#007AD2" stroke-width="1.17647" stroke-linejoin="round"/>
<path d="M29.9457 43.6671C28.5646 44.259 26.7231 44.1275 23.1058 42.3517C16.529 39.0633 3.90157 44.259 12.5172 59.1226C22.777 76.8799 31.5899 63.2002 37.1144 53.8611C32.971 52.3485 30.0115 48.3366 29.9457 43.6671Z" stroke="#007AD2" stroke-width="1.17647" stroke-linejoin="round"/>
<path d="M52.0437 41.7598C52.1094 42.3517 52.1752 42.9436 52.1752 43.5356C52.1752 47.5474 50.0049 51.0989 46.7822 53.0719C47.9661 53.9927 48.821 55.6369 49.0841 59.6487C49.4787 67.0147 60.3304 75.3015 68.8803 60.4379C79.1401 42.6806 62.8296 41.8256 52.0437 41.7598Z" stroke="#007AD2" stroke-width="1.17647" stroke-linejoin="round"/>
<path d="M40.902 49.4118C44.1615 49.4118 46.8039 46.7694 46.8039 43.5098C46.8039 40.2502 44.1615 37.6078 40.902 37.6078C37.6424 37.6078 35 40.2502 35 43.5098C35 46.7694 37.6424 49.4118 40.902 49.4118Z" stroke="#007AD2" stroke-width="1.17647" stroke-linejoin="round"/>
</svg>
