<svg width="19" height="19" viewBox="0 0 19 19" fill="none" xmlns="http://www.w3.org/2000/svg">
<path fill-rule="evenodd" clip-rule="evenodd" d="M7.91634 0.333328C9.32466 0.333328 10.7052 0.725498 11.9031 1.46589C13.1011 2.20629 14.0693 3.26566 14.6991 4.52529C15.3289 5.78493 15.5955 7.19506 15.469 8.59769C15.3426 10.0003 14.828 11.34 13.983 12.4667C14.0242 12.497 14.0621 12.5306 14.0989 12.5674L18.4323 16.9007C18.6296 17.1051 18.7388 17.3787 18.7363 17.6628C18.7339 17.9468 18.6199 18.2185 18.4191 18.4194C18.2182 18.6202 17.9465 18.7342 17.6624 18.7366C17.3784 18.7391 17.1047 18.6299 16.9004 18.4326L12.5671 14.0992C12.5308 14.063 12.4972 14.0243 12.4663 13.9833C11.5051 14.7043 10.3862 15.1865 9.20203 15.3902C8.01783 15.5939 6.80217 15.5133 5.65524 15.1551C4.5083 14.7968 3.46292 14.1711 2.60524 13.3295C1.74756 12.488 1.10214 11.4547 0.72216 10.3147C0.342183 9.17479 0.238529 7.96088 0.41974 6.77303C0.60095 5.58518 1.06184 4.45739 1.76442 3.48261C2.46701 2.50783 3.39117 1.71395 4.46076 1.16641C5.53035 0.618865 6.71475 0.333328 7.91634 0.333328ZM7.91634 2.49999C6.47975 2.49999 5.102 3.07068 4.08618 4.0865C3.07036 5.10232 2.49968 6.48007 2.49968 7.91666C2.49968 9.35325 3.07036 10.731 4.08618 11.7468C5.102 12.7626 6.47975 13.3333 7.91634 13.3333C9.35293 13.3333 10.7307 12.7626 11.7465 11.7468C12.7623 10.731 13.333 9.35325 13.333 7.91666C13.333 6.48007 12.7623 5.10232 11.7465 4.0865C10.7307 3.07068 9.35293 2.49999 7.91634 2.49999Z" fill="white"/>
</svg>
