<svg width="20" height="15" viewBox="0 0 20 15" fill="none" xmlns="http://www.w3.org/2000/svg">
<path fill-rule="evenodd" clip-rule="evenodd" d="M12 0C13.3 0 14.5743 0.362003 15.6801 1.04544C16.7859 1.72889 17.6796 2.70676 18.261 3.8695C18.8424 5.03225 19.0885 6.33391 18.9717 7.62864C18.855 8.92337 18.38 10.16 17.6 11.2C17.638 11.228 17.673 11.259 17.707 11.293L19.707 13.293C19.8892 13.4816 19.99 13.7342 19.9877 13.9964C19.9854 14.2586 19.8802 14.5094 19.6948 14.6948C19.5094 14.8802 19.2586 14.9854 18.9964 14.9877C18.7342 14.99 18.4816 14.8892 18.293 14.707L16.293 12.707C16.2595 12.6736 16.2285 12.6378 16.2 12.6C15.3127 13.2655 14.2799 13.7106 13.1868 13.8987C12.0937 14.0867 10.9715 14.0123 9.91283 13.6816C8.85412 13.3509 7.88915 12.7733 7.09744 11.9965C6.30574 11.2197 5.70996 10.2658 5.35922 9.21359C5.00847 8.16135 4.91279 7.04082 5.08006 5.94434C5.24733 4.84786 5.67277 3.80683 6.3213 2.90703C6.96984 2.00723 7.82292 1.27442 8.81024 0.768997C9.79755 0.263572 10.8908 0 12 0ZM4 11C4.26522 11 4.51957 11.1054 4.70711 11.2929C4.89464 11.4804 5 11.7348 5 12C5 12.2652 4.89464 12.5196 4.70711 12.7071C4.51957 12.8946 4.26522 13 4 13H1C0.734784 13 0.48043 12.8946 0.292893 12.7071C0.105357 12.5196 0 12.2652 0 12C0 11.7348 0.105357 11.4804 0.292893 11.2929C0.48043 11.1054 0.734784 11 1 11H4ZM12 2C10.6739 2 9.40215 2.52678 8.46447 3.46447C7.52678 4.40215 7 5.67392 7 7C7 8.32608 7.52678 9.59785 8.46447 10.5355C9.40215 11.4732 10.6739 12 12 12C13.3261 12 14.5979 11.4732 15.5355 10.5355C16.4732 9.59785 17 8.32608 17 7C17 5.67392 16.4732 4.40215 15.5355 3.46447C14.5979 2.52678 13.3261 2 12 2ZM2 6C2.26522 6 2.51957 6.10536 2.70711 6.29289C2.89464 6.48043 3 6.73478 3 7C3 7.26522 2.89464 7.51957 2.70711 7.70711C2.51957 7.89464 2.26522 8 2 8H1C0.734784 8 0.48043 7.89464 0.292893 7.70711C0.105357 7.51957 0 7.26522 0 7C0 6.73478 0.105357 6.48043 0.292893 6.29289C0.48043 6.10536 0.734784 6 1 6H2ZM4 1C4.26522 1 4.51957 1.10536 4.70711 1.29289C4.89464 1.48043 5 1.73478 5 2C5 2.26522 4.89464 2.51957 4.70711 2.70711C4.51957 2.89464 4.26522 3 4 3H1C0.734784 3 0.48043 2.89464 0.292893 2.70711C0.105357 2.51957 0 2.26522 0 2C0 1.73478 0.105357 1.48043 0.292893 1.29289C0.48043 1.10536 0.734784 1 1 1H4Z" fill="white"/>
</svg>
