<svg width="26" height="26" viewBox="0 0 26 26" fill="none" xmlns="http://www.w3.org/2000/svg">
<path opacity="0.99" fill-rule="evenodd" clip-rule="evenodd" d="M11.7861 0.030188C7.3678 0.456348 3.42145 3.13146 1.42166 7.05598C0.714431 8.44397 0.296554 9.78229 0.0678992 11.3916C-0.0334537 12.1053 -0.0187494 13.9515 0.0947129 14.7472C0.296198 16.1602 0.713108 17.4991 1.35206 18.7854C2.61973 21.3372 4.64486 23.3606 7.20376 24.6321C11.352 26.6932 16.2544 26.4098 20.1235 23.8852C21.6363 22.898 23.0701 21.4346 24.0488 19.8785C24.4208 19.2871 24.9825 18.1373 25.2376 17.4451C25.4946 16.7476 25.7944 15.537 25.9056 14.7472C26.0182 13.9472 26.0334 12.0964 25.9331 11.3916C25.6328 9.28028 24.9627 7.4828 23.8504 5.80409C23.3773 5.09016 22.9048 4.51417 22.2466 3.8489C20.2173 1.79792 17.693 0.5259 14.8066 0.099791C14.1841 0.00791905 12.4349 -0.0323989 11.7861 0.030188ZM13.8431 4.95482C15.8344 5.36552 17.2252 7.17871 17.1035 9.20539C17.0652 9.84285 16.971 10.2017 16.6898 10.7815C16.2874 11.6114 15.6376 12.26 14.8066 12.6613C14.2652 12.9227 13.8148 13.0407 13.2085 13.0799C11.4906 13.1912 9.80983 12.1056 9.1775 10.4764C7.9923 7.42286 10.6365 4.29351 13.8431 4.95482ZM12.5956 6.99558C12.0702 7.10509 11.5271 7.49942 11.2494 7.97297C11.0483 8.3159 10.9477 8.8651 11.0113 9.27306C11.1446 10.1289 11.7476 10.7612 12.5996 10.9388C13.2735 11.0792 13.9288 10.8784 14.4163 10.3819C15.1373 9.64766 15.2105 8.58679 14.5979 7.75018C14.4024 7.48321 13.9954 7.18557 13.6711 7.0725C13.3838 6.97229 12.8801 6.93624 12.5956 6.99558ZM9.40422 13.0985C9.51122 13.1282 9.77752 13.2659 9.99605 13.4046C11.3292 14.2503 12.9262 14.4955 14.4544 14.089C14.948 13.9578 15.6225 13.6634 15.967 13.4291C16.6228 12.9829 17.0739 12.941 17.4863 13.2878C17.677 13.4481 17.8836 13.8701 17.8843 14.1006C17.8846 14.1924 17.8537 14.3411 17.8156 14.4311C17.6601 14.7986 16.7526 15.4846 16.0174 15.7905C15.5634 15.9794 14.6497 16.2192 14.1833 16.2719C14.0084 16.2917 13.8653 16.322 13.8653 16.3393C13.8653 16.3565 14.5843 17.0921 15.463 17.9739C16.7983 19.3138 17.0698 19.6106 17.1163 19.7806C17.1893 20.0476 17.1872 20.1006 17.0924 20.3786C16.9212 20.8808 16.3365 21.2072 15.843 21.076C15.6497 21.0247 15.4535 20.8511 14.3409 19.7461C13.2014 18.6145 13.0501 18.4811 12.9595 18.5296C12.9035 18.5595 12.3368 19.1102 11.7001 19.7535C10.4404 21.0262 10.2615 21.1593 9.87069 21.1153C9.21978 21.042 8.74166 20.3596 8.93068 19.7738C8.98003 19.6208 9.35054 19.2178 10.6029 17.9547L12.2117 16.3321L11.6651 16.2436C10.5271 16.0594 9.66304 15.7219 8.93444 15.177C8.46335 14.8247 8.29788 14.6521 8.19485 14.4056C8.04817 14.0547 8.1223 13.7257 8.42564 13.3814C8.70101 13.0688 8.99301 12.9844 9.40422 13.0985Z" fill="#007AD2"/>
</svg>
