<svg width="24" height="24" viewBox="0 0 24 24" fill="none" xmlns="http://www.w3.org/2000/svg">
<path fill-rule="evenodd" clip-rule="evenodd" d="M8.01074 3C8.64487 2.99394 9.25952 3.21897 9.73984 3.63304C10.2202 4.04711 10.5333 4.6219 10.6207 5.25C10.7127 5.946 10.8837 6.63 11.1287 7.285C11.4877 8.237 11.2587 9.312 10.5367 10.039L10.0737 10.502C10.9662 11.8579 12.1275 13.0161 13.4857 13.905L13.9557 13.437C14.3101 13.0872 14.7571 12.8461 15.244 12.7421C15.7309 12.6381 16.2374 12.6755 16.7037 12.85C17.3637 13.096 18.0487 13.266 18.7547 13.359C19.3858 13.4474 19.9627 13.7638 20.3764 14.2486C20.79 14.7334 21.0118 15.3529 20.9997 15.99V18.384C21.0015 18.7487 20.9267 19.1097 20.78 19.4436C20.6334 19.7776 20.4183 20.077 20.1486 20.3225C19.8788 20.568 19.5606 20.7541 19.2143 20.8687C18.8681 20.9834 18.5017 21.024 18.1387 20.988C15.5117 20.7034 12.9877 19.8079 10.7687 18.373C8.70406 17.0643 6.95265 15.3173 5.63874 13.256C4.19057 11.0256 3.28977 8.48456 3.00974 5.84C2.97692 5.47932 3.01969 5.11576 3.13533 4.77254C3.25097 4.42933 3.43694 4.11401 3.68134 3.84674C3.92575 3.57947 4.22322 3.36612 4.55474 3.22032C4.88627 3.07452 5.24457 2.99948 5.60674 3H8.01074ZM8.02074 5H5.60774C5.52485 5.00027 5.44289 5.01743 5.36686 5.05043C5.29083 5.08344 5.22232 5.13159 5.16551 5.19195C5.10871 5.25231 5.0648 5.32361 5.03647 5.40151C5.00814 5.4794 4.99598 5.56225 5.00074 5.645C5.249 7.97385 6.04355 10.2112 7.31974 12.175C8.4786 13.9938 10.0239 15.535 11.8457 16.689C13.7994 17.9542 16.022 18.7449 18.3357 18.998C18.4202 19.0054 18.5052 18.995 18.5855 18.9677C18.6657 18.9404 18.7394 18.8966 18.8018 18.8392C18.8641 18.7818 18.9139 18.712 18.9478 18.6344C18.9817 18.5567 18.9991 18.4728 18.9987 18.388V15.979C19.0071 15.8279 18.9592 15.6791 18.8642 15.5613C18.7693 15.4435 18.6341 15.365 18.4847 15.341C17.6371 15.2291 16.8048 15.0218 16.0037 14.723C15.8954 14.6822 15.7777 14.673 15.6644 14.6965C15.5511 14.7201 15.4468 14.7754 15.3637 14.856L14.3427 15.876C14.188 16.0305 13.9868 16.13 13.77 16.1593C13.5533 16.1885 13.333 16.1459 13.1427 16.038C10.9727 14.8072 9.17515 13.0134 7.93974 10.846C7.83119 10.6554 7.78835 10.4343 7.8178 10.2169C7.84726 9.99955 7.94738 9.79788 8.10274 9.643L9.11974 8.627C9.20132 8.54455 9.25743 8.44035 9.28137 8.32686C9.30531 8.21336 9.29606 8.09538 9.25474 7.987C8.95707 7.19086 8.75043 6.3636 8.63874 5.521C8.61704 5.37352 8.54209 5.2391 8.42805 5.14311C8.314 5.04712 8.16876 4.99621 8.01974 5H8.02074Z" fill="#B5BBBE"/>
</svg>
