<svg width="56" height="56" viewBox="0 0 56 56" fill="none" xmlns="http://www.w3.org/2000/svg">
<rect width="56" height="56" rx="28" fill="white"/>
<path fill-rule="evenodd" clip-rule="evenodd" d="M22.414 28.9998H36C36.2652 28.9998 36.5196 28.8945 36.7071 28.7069C36.8946 28.5194 37 28.2651 37 27.9998C37 27.7346 36.8946 27.4803 36.7071 27.2927C36.5196 27.1052 36.2652 26.9998 36 26.9998H22.414L26.707 22.7068C26.8025 22.6146 26.8787 22.5042 26.9311 22.3822C26.9835 22.2602 27.0111 22.129 27.0123 21.9962C27.0134 21.8635 26.9881 21.7318 26.9378 21.6089C26.8875 21.486 26.8133 21.3743 26.7194 21.2804C26.6255 21.1865 26.5139 21.1123 26.391 21.062C26.2681 21.0117 26.1364 20.9864 26.0036 20.9876C25.8708 20.9887 25.7396 21.0163 25.6176 21.0687C25.4956 21.1211 25.3852 21.1973 25.293 21.2928L19.293 27.2928C19.1055 27.4804 19.0002 27.7347 19.0002 27.9998C19.0002 28.265 19.1055 28.5193 19.293 28.7068L25.293 34.7068C25.4816 34.889 25.7342 34.9898 25.9964 34.9875C26.2586 34.9852 26.5094 34.8801 26.6948 34.6947C26.8802 34.5092 26.9854 34.2584 26.9877 33.9962C26.99 33.734 26.8892 33.4814 26.707 33.2928L22.414 28.9998Z" fill="#007AD2"/>
</svg>
