<svg width="56" height="56" viewBox="0 0 56 56" fill="none" xmlns="http://www.w3.org/2000/svg">
<rect width="56" height="56" rx="28" fill="white"/>
<path fill-rule="evenodd" clip-rule="evenodd" d="M33.7922 29.0371H19.7031C19.428 29.0371 19.1642 28.9278 18.9698 28.7333C18.7753 28.5388 18.666 28.2751 18.666 28C18.666 27.725 18.7753 27.4612 18.9698 27.2667C19.1642 27.0723 19.428 26.963 19.7031 26.963H33.7922L29.3402 22.511C29.2412 22.4153 29.1622 22.3009 29.1078 22.1744C29.0535 22.0479 29.0249 21.9118 29.0237 21.7741C29.0225 21.6364 29.0487 21.4998 29.1009 21.3724C29.153 21.2449 29.23 21.1291 29.3274 21.0318C29.4248 20.9344 29.5405 20.8574 29.668 20.8053C29.7954 20.7531 29.932 20.7269 30.0697 20.7281C30.2074 20.7293 30.3435 20.7579 30.47 20.8122C30.5965 20.8666 30.7109 20.9456 30.8066 21.0446L37.0288 27.2668C37.2232 27.4613 37.3325 27.725 37.3325 28C37.3325 28.275 37.2232 28.5387 37.0288 28.7332L30.8066 34.9554C30.611 35.1443 30.3491 35.2489 30.0772 35.2465C29.8052 35.2441 29.5451 35.1351 29.3529 34.9428C29.1606 34.7505 29.0515 34.4904 29.0492 34.2185C29.0468 33.9466 29.1513 33.6847 29.3402 33.4891L33.7922 29.0371Z" fill="#007AD2"/>
</svg>
