<svg width="10" height="7" viewBox="0 0 10 7" fill="none" xmlns="http://www.w3.org/2000/svg">
<path fill-rule="evenodd" clip-rule="evenodd" d="M1.47128 1.19535L4.99995 4.72401L8.52861 1.19535C8.59011 1.13167 8.66367 1.08089 8.74501 1.04595C8.82635 1.01101 8.91383 0.992616 9.00235 0.991846C9.09086 0.991077 9.17865 1.00795 9.26058 1.04147C9.34251 1.07499 9.41695 1.12449 9.47954 1.18708C9.54214 1.24968 9.59164 1.32411 9.62516 1.40604C9.65868 1.48798 9.67555 1.57576 9.67478 1.66428C9.67401 1.7528 9.65562 1.84028 9.62068 1.92162C9.58574 2.00295 9.53495 2.07652 9.47128 2.13801L5.47128 6.13801C5.34626 6.26299 5.17672 6.3332 4.99995 6.3332C4.82317 6.3332 4.65363 6.26299 4.52861 6.13801L0.528614 2.13801C0.464941 2.07652 0.414154 2.00295 0.379214 1.92162C0.344274 1.84028 0.325884 1.7528 0.325114 1.66428C0.324345 1.57576 0.341212 1.48797 0.374733 1.40604C0.408254 1.32411 0.457757 1.24968 0.520351 1.18708C0.582947 1.12449 0.657382 1.07499 0.739313 1.04147C0.821243 1.00795 0.909029 0.991077 0.997549 0.991846C1.08607 0.992615 1.17355 1.01101 1.25488 1.04595C1.33622 1.08088 1.40978 1.13167 1.47128 1.19535Z" fill="white"/>
</svg>
