<svg width="10" height="5" viewBox="0 0 10 5" fill="none" xmlns="http://www.w3.org/2000/svg">
<path fill-rule="evenodd" clip-rule="evenodd" d="M1.91274 0.420925L5.00032 3.50851L8.0879 0.420925C8.14171 0.365211 8.20608 0.320771 8.27725 0.290199C8.34842 0.259627 8.42496 0.243535 8.50242 0.242862C8.57987 0.242189 8.65669 0.256949 8.72838 0.286279C8.80006 0.31561 8.8652 0.358924 8.91997 0.413695C8.97474 0.468465 9.01805 0.533595 9.04738 0.605285C9.07671 0.676975 9.09147 0.753787 9.0908 0.831242C9.09013 0.908697 9.07403 0.985242 9.04346 1.05641C9.01289 1.12758 8.96845 1.19195 8.91274 1.24576L5.41274 4.74576C5.30335 4.85512 5.155 4.91655 5.00032 4.91655C4.84564 4.91655 4.69729 4.85512 4.5879 4.74576L1.0879 1.24576C1.03219 1.19195 0.987751 1.12758 0.957179 1.05641C0.926607 0.985241 0.910514 0.908696 0.909841 0.831242C0.909168 0.753787 0.923927 0.676974 0.953258 0.605285C0.982588 0.533595 1.0259 0.468465 1.08067 0.413694C1.13544 0.358924 1.20058 0.315609 1.27226 0.286279C1.34395 0.256948 1.42077 0.242188 1.49822 0.242862C1.57568 0.243535 1.65222 0.259627 1.72339 0.290198C1.79456 0.32077 1.85893 0.36521 1.91274 0.420925V0.420925Z" fill="#7D7D7D"/>
</svg>
